# This file uses centimeters as units for non-parametric coordinates.

mtllib SpeedUp.mtl
g default
v -0.101123 0.045138 0.050827
v 0.130373 0.045138 0.050827
v -0.101123 0.406177 -0.010582
v 0.130373 0.406177 -0.010582
v -0.101123 0.656177 0.130674
v 0.130373 0.656177 0.130674
v -0.104843 0.945748 0.031991
v 0.126560 0.937714 0.037766
v -0.102490 1.193573 0.149861
v 0.128914 1.185539 0.155636
v -0.097310 1.124641 -0.122580
v 0.134093 1.116606 -0.116805
v -0.099663 0.876816 -0.240450
v 0.131740 0.868782 -0.234675
v -0.101123 0.656177 -0.126540
v 0.130373 0.656177 -0.126540
v -0.101123 0.406177 -0.209296
v 0.130373 0.406177 -0.209296
v -0.101123 0.045138 0.050817
v 0.130373 0.045138 0.050817
vt 0.375000 0.000000
vt 0.625000 0.000000
vt 0.625000 0.062500
vt 0.375000 0.062500
vt 0.625000 0.125000
vt 0.375000 0.125000
vt 0.625000 0.187500
vt 0.375000 0.187500
vt 0.625000 0.250000
vt 0.375000 0.250000
vt 0.625000 0.500000
vt 0.375000 0.500000
vt 0.625000 0.562500
vt 0.375000 0.562500
vt 0.625000 0.625000
vt 0.375000 0.625000
vt 0.625000 0.687500
vt 0.375000 0.687500
vt 0.625000 0.750000
vt 0.375000 0.750000
vt 0.625000 1.000000
vt 0.375000 1.000000
vt 0.875000 0.000000
vt 0.875000 0.062500
vt 0.875000 0.125000
vt 0.875000 0.187500
vt 0.875000 0.250000
vt 0.125000 0.000000
vt 0.125000 0.062500
vt 0.125000 0.125000
vt 0.125000 0.187500
vt 0.125000 0.250000
vn 0.000000 0.167680 0.985842
vn 0.000000 0.167680 0.985842
vn 0.000000 -0.129573 0.991570
vn 0.000000 -0.129573 0.991570
vn 0.000000 -0.129573 0.991570
vn 0.000000 -0.129573 0.991570
vn -0.003520 -0.086544 0.996242
vn -0.003547 -0.083012 0.996542
vn -0.003547 -0.083012 0.996542
vn -0.003520 -0.086544 0.996242
vn -0.022452 -0.032987 0.999204
vn -0.023155 -0.049726 0.998495
vn -0.023155 -0.049726 0.998495
vn -0.022452 -0.032987 0.999204
vn -0.037416 -0.428922 0.902566
vn -0.037416 -0.428922 0.902566
vn 0.039738 0.968864 -0.244384
vn 0.039738 0.968864 -0.244384
vn 0.039738 0.968864 -0.244384
vn 0.039738 0.968864 -0.244384
vn 0.037416 0.428922 -0.902566
vn 0.037416 0.428922 -0.902566
vn 0.023493 0.006976 -0.999700
vn 0.024070 0.022147 -0.999465
vn 0.024070 0.022147 -0.999465
vn 0.023493 0.006976 -0.999700
vn 0.001662 -0.061218 -0.998123
vn 0.001655 -0.059675 -0.998217
vn 0.001655 -0.059675 -0.998217
vn 0.001662 -0.061218 -0.998123
vn 0.000000 -0.278749 -0.960364
vn 0.000000 -0.278749 -0.960364
vn 0.000000 -0.278749 -0.960364
vn 0.000000 -0.278749 -0.960364
vn 0.000000 -0.584548 -0.811359
vn 0.000000 -0.584548 -0.811359
vn 0.000000 -1.000000 0.000000
vn 0.000000 -1.000000 0.000000
vn 0.000000 -1.000000 0.000000
vn 0.000000 -1.000000 0.000000
vn 1.000000 0.000000 0.000000
vn 1.000000 0.000000 0.000000
vn 1.000000 0.000000 0.000000
vn 1.000000 0.000000 0.000000
vn 1.000000 0.000000 0.000000
vn 1.000000 0.000000 0.000000
vn 0.999976 0.004802 0.004912
vn 0.999974 0.004994 0.005109
vn 0.999974 0.004994 0.005109
vn 0.999976 0.004802 0.004912
vn 0.999895 -0.002158 0.014314
vn 0.999824 -0.007566 0.017181
vn 0.999824 -0.007566 0.017181
vn 0.999895 -0.002158 0.014314
vn 0.999482 -0.021063 0.024332
vn 0.999482 -0.021063 0.024332
vn -1.000000 0.000000 0.000000
vn -1.000000 0.000000 0.000000
vn -1.000000 0.000000 0.000000
vn -1.000000 0.000000 0.000000
vn -1.000000 0.000000 0.000000
vn -1.000000 0.000000 0.000000
vn -0.999975 -0.004801 -0.005195
vn -0.999977 -0.004639 -0.005020
vn -0.999977 -0.004639 -0.005020
vn -0.999975 -0.004801 -0.005195
vn -0.999827 0.007471 -0.017054
vn -0.999896 0.002230 -0.014246
vn -0.999896 0.002230 -0.014246
vn -0.999827 0.007471 -0.017054
vn -0.999482 0.021063 -0.024332
vn -0.999482 0.021063 -0.024332
s off
g SpeedUp:pCube3
usemtl initialShadingGroup
f 1/1/1 2/2/2 4/3/3 3/4/4
f 3/4/5 4/3/6 6/5/7 5/6/8
f 5/6/9 6/5/10 8/7/11 7/8/12
f 7/8/13 8/7/14 10/9/15 9/10/16
f 9/10/17 10/9/18 12/11/19 11/12/20
f 11/12/21 12/11/22 14/13/23 13/14/24
f 13/14/25 14/13/26 16/15/27 15/16/28
f 15/16/29 16/15/30 18/17/31 17/18/32
f 17/18/33 18/17/34 20/19/35 19/20/36
f 19/20/37 20/19/38 2/21/39 1/22/40
f 2/2/41 20/23/42 18/24/43 4/3/44
f 4/3/45 18/24/46 16/25/47 6/5/48
f 6/5/49 16/25/50 14/26/51 8/7/52
f 8/7/53 14/26/54 12/27/55 10/9/56
f 19/28/57 1/1/58 3/4/59 17/29/60
f 17/29/61 3/4/62 5/6/63 15/30/64
f 15/30/65 5/6/66 7/8/67 13/31/68
f 13/31/69 7/8/70 9/10/71 11/32/72
